<mxfile host="app.diagrams.net" modified="2023-08-16T00:27:04.589Z" agent="Mozilla/5.0 (Windows NT 10.0; Win64; x64) AppleWebKit/537.36 (KHTML, like Gecko) Chrome/115.0.0.0 Safari/537.36" version="21.6.7" etag="aImkYt9pSLpToVwKKYeO" type="github">
  <diagram name="PÃ¡gina-1" id="_HHy8o2gshW-XRw0rBeh">
    <mxGraphModel>
      <root>
        <mxCell id="0" />
        <mxCell id="1" parent="0" />
      </root>
    </mxGraphModel>
  </diagram>
</mxfile>
